<?xml version="1.0" encoding="UTF-8" standalone="no"?>
<!-- Created with Inkscape (http://www.inkscape.org/) -->

<svg
   xmlns:dc="http://purl.org/dc/elements/1.1/"
   xmlns:cc="http://creativecommons.org/ns#"
   xmlns:rdf="http://www.w3.org/1999/02/22-rdf-syntax-ns#"
   xmlns:svg="http://www.w3.org/2000/svg"
   xmlns="http://www.w3.org/2000/svg"
   xmlns:sodipodi="http://sodipodi.sourceforge.net/DTD/sodipodi-0.dtd"
   xmlns:inkscape="http://www.inkscape.org/namespaces/inkscape"
   width="210mm"
   height="297mm"
   viewBox="0 0 744.09448819 1052.3622047"
   id="svg2"
   version="1.1"
   inkscape:version="0.91 r13725"
   sodipodi:docname="logo.svg">
  <defs
     id="defs4">
    <filter
       inkscape:collect="always"
       style="color-interpolation-filters:sRGB"
       id="filter5008"
       x="-0.28046452"
       width="1.560929"
       y="-1.5110744"
       height="4.0221488">
      <feGaussianBlur
         inkscape:collect="always"
         stdDeviation="31.164317"
         id="feGaussianBlur5010" />
    </filter>
  </defs>
  <sodipodi:namedview
     id="base"
     pagecolor="#ffffff"
     bordercolor="#666666"
     borderopacity="1.0"
     inkscape:pageopacity="0.0"
     inkscape:pageshadow="2"
     inkscape:zoom="1.4"
     inkscape:cx="-694.56276"
     inkscape:cy="1337.7064"
     inkscape:document-units="px"
     inkscape:current-layer="layer1"
     showgrid="false"
     inkscape:window-width="1863"
     inkscape:window-height="1056"
     inkscape:window-x="1977"
     inkscape:window-y="24"
     inkscape:window-maximized="1"
     showguides="false"
     inkscape:guide-bbox="true">
    <sodipodi:guide
       position="218.69803,771.18835"
       orientation="0,1"
       id="guide4180" />
  </sodipodi:namedview>
  <metadata
     id="metadata7">
    <rdf:RDF>
      <cc:Work
         rdf:about="">
        <dc:format>image/svg+xml</dc:format>
        <dc:type
           rdf:resource="http://purl.org/dc/dcmitype/StillImage" />
        <dc:title />
      </cc:Work>
    </rdf:RDF>
  </metadata>
  <g
     inkscape:label="Layer 1"
     inkscape:groupmode="layer"
     id="layer1">
    <rect
       style="opacity:1;fill:#3c8dbc;fill-opacity:1;stroke:none;stroke-width:0.69999999;stroke-miterlimit:4;stroke-dasharray:none;stroke-opacity:1"
       id="rect4140"
       width="1206.756"
       height="409.56564"
       x="-182.68233"
       y="88.102463"
       ry="29.497019" />
    <text
       xml:space="preserve"
       style="font-style:normal;font-weight:normal;font-size:23.66548729px;line-height:125%;font-family:sans-serif;letter-spacing:0px;word-spacing:0px;fill:#ffffff;fill-opacity:1;stroke:none;stroke-width:1px;stroke-linecap:butt;stroke-linejoin:miter;stroke-opacity:1"
       x="299.80179"
       y="288.58282"
       id="text4136"
       sodipodi:linespacing="125%"
       inkscape:export-xdpi="273.86972"
       inkscape:export-ydpi="273.86972"><tspan
         sodipodi:role="line"
         id="tspan4138"
         x="299.80179"
         y="288.58282"
         style="font-style:normal;font-variant:normal;font-weight:normal;font-stretch:normal;font-family:'Venus Rising';-inkscape-font-specification:'Venus Rising';fill:#ffffff">PRORANK</tspan></text>
    <path
       style="opacity:1;fill:#ffffff;fill-opacity:1;stroke:none;stroke-width:0.69999999;stroke-miterlimit:4;stroke-dasharray:none;stroke-opacity:1"
       id="path4158"
       sodipodi:type="arc"
       sodipodi:cx="273.79922"
       sodipodi:cy="282.19699"
       sodipodi:rx="7.5"
       sodipodi:ry="7.5"
       sodipodi:start="5.7589295"
       sodipodi:end="5.6467337"
       d="m 280.29195,278.44272 a 7.5,7.5 0 0 1 -2.55784,10.13915 7.5,7.5 0 0 1 -10.2069,-2.27248 7.5,7.5 0 0 1 1.98533,-10.26661 7.5,7.5 0 0 1 10.31826,1.69662"
       sodipodi:open="true" />
    <path
       sodipodi:open="true"
       d="m 294.26655,285.34348 a 4.5,4.5 0 0 1 -1.53471,6.08349 4.5,4.5 0 0 1 -6.12414,-1.36349 4.5,4.5 0 0 1 1.1912,-6.15997 4.5,4.5 0 0 1 6.19095,1.01797"
       sodipodi:end="5.6467337"
       sodipodi:start="5.7589295"
       sodipodi:ry="4.5"
       sodipodi:rx="4.5"
       sodipodi:cy="287.59604"
       sodipodi:cx="290.37091"
       sodipodi:type="arc"
       id="path4166"
       style="opacity:1;fill:#ffffff;fill-opacity:1;stroke:none;stroke-width:0.69999999;stroke-miterlimit:4;stroke-dasharray:none;stroke-opacity:1" />
    <path
       style="opacity:1;fill:#ffffff;fill-opacity:1;stroke:none;stroke-width:0.69999999;stroke-miterlimit:4;stroke-dasharray:none;stroke-opacity:1"
       id="path4168"
       sodipodi:type="arc"
       sodipodi:cx="290.10049"
       sodipodi:cy="271.81232"
       sodipodi:rx="6"
       sodipodi:ry="6"
       sodipodi:start="5.7589295"
       sodipodi:end="5.6467337"
       d="m 295.29467,268.8089 a 6,6 0 0 1 -2.04627,8.11132 6,6 0 0 1 -8.16552,-1.81798 6,6 0 0 1 1.58827,-8.2133 6,6 0 0 1 8.2546,1.3573"
       sodipodi:open="true" />
    <text
       inkscape:export-ydpi="273.86972"
       inkscape:export-xdpi="273.86972"
       sodipodi:linespacing="125%"
       id="text4213"
       y="329.54855"
       x="300.32877"
       style="font-style:normal;font-weight:normal;font-size:26.04388237px;line-height:125%;font-family:sans-serif;letter-spacing:0px;word-spacing:0px;fill:#ffffff;fill-opacity:1;stroke:none;stroke-width:1px;stroke-linecap:butt;stroke-linejoin:miter;stroke-opacity:1"
       xml:space="preserve"
       inkscape:export-filename="/tmp/logo.png"><tspan
         style="font-style:normal;font-variant:normal;font-weight:normal;font-stretch:normal;font-size:26.04351807px;line-height:125%;font-family:'Arial Black';-inkscape-font-specification:'Arial Black, Normal';text-align:start;writing-mode:lr-tb;text-anchor:start;fill:#ffffff"
         y="329.54855"
         x="300.32877"
         id="tspan4215"
         sodipodi:role="line">PRORANK</tspan></text>
    <path
       sodipodi:open="true"
       d="m 280.29195,278.44272 a 7.5,7.5 0 0 1 -2.55784,10.13915 7.5,7.5 0 0 1 -10.2069,-2.27248 7.5,7.5 0 0 1 1.98533,-10.26661 7.5,7.5 0 0 1 10.31826,1.69662"
       sodipodi:end="5.6467337"
       sodipodi:start="5.7589295"
       sodipodi:ry="7.5"
       sodipodi:rx="7.5"
       sodipodi:cy="282.19699"
       sodipodi:cx="273.79922"
       sodipodi:type="arc"
       id="path4217"
       style="opacity:1;fill:#ffffff;fill-opacity:1;stroke:none;stroke-width:0.69999999;stroke-miterlimit:4;stroke-dasharray:none;stroke-opacity:1" />
    <path
       style="opacity:1;fill:#ffffff;fill-opacity:1;stroke:none;stroke-width:0.69999999;stroke-miterlimit:4;stroke-dasharray:none;stroke-opacity:1"
       id="path4219"
       sodipodi:type="arc"
       sodipodi:cx="273.79922"
       sodipodi:cy="282.19699"
       sodipodi:rx="7.5"
       sodipodi:ry="7.5"
       sodipodi:start="5.7589295"
       sodipodi:end="5.6467337"
       d="m 280.29195,278.44272 a 7.5,7.5 0 0 1 -2.55784,10.13915 7.5,7.5 0 0 1 -10.2069,-2.27248 7.5,7.5 0 0 1 1.98533,-10.26661 7.5,7.5 0 0 1 10.31826,1.69662"
       sodipodi:open="true" />
    <g
       id="g4238">
      <path
         id="path4147"
         d="m 290.31948,307.93802 c -1.7443,0 -3.21757,1.10383 -3.77288,2.65241 a 11.369315,11.369315 0 0 0 -5.25982,-1.29909 11.369315,11.369315 0 0 0 -5.3392,1.34142 c -0.55563,-1.54796 -2.02902,-2.65108 -3.77289,-2.65108 l -0.14287,0 c -2.22286,0 -4.01233,1.78947 -4.01233,4.01233 l 0,0.35586 c 0,1.80708 1.18235,3.32809 2.81908,3.83374 a 11.369315,11.369315 0 0 0 -0.92205,4.47667 11.369315,11.369315 0 0 0 11.37026,11.36894 11.369315,11.369315 0 0 0 11.36893,-11.36894 11.369315,11.369315 0 0 0 -0.95909,-4.53488 c 1.61482,-0.51857 2.77807,-2.02634 2.77807,-3.81786 l 0,-0.35718 c 0,-2.22286 -1.78947,-4.01234 -4.01233,-4.01234 l -0.14288,0 z"
         style="opacity:1;fill:none;fill-opacity:1;stroke:#ffffff;stroke-width:3.00000024;stroke-miterlimit:4;stroke-dasharray:none;stroke-opacity:1"
         inkscape:connector-curvature="0" />
      <path
         id="rect4202"
         d="m 281.21534,316.46935 c -2.22286,0 -4.01233,1.78948 -4.01233,4.01234 l 0,0.35718 c 0,2.22286 1.78947,4.01233 4.01233,4.01233 l 0.14287,0 c 2.22286,0 4.01233,-1.78947 4.01233,-4.01233 l 0,-0.35718 c 0,-2.22286 -1.78947,-4.01234 -4.01233,-4.01234 l -0.14287,0 z m 0.0225,1.33481 0.0966,0 c 1.51514,0 2.73574,1.21928 2.73574,2.73442 l 0,0.2434 c 0,1.51514 -1.2206,2.73442 -2.73574,2.73442 l -0.0966,0 c -1.51514,0 -2.73574,-1.21928 -2.73574,-2.73442 l 0,-0.2434 c 0,-1.51514 1.2206,-2.73442 2.73574,-2.73442 z"
         style="opacity:1;fill:none;fill-opacity:1;stroke:none;stroke-width:0.5;stroke-miterlimit:4;stroke-dasharray:none;stroke-opacity:1"
         inkscape:connector-curvature="0" />
      <path
         sodipodi:open="true"
         d="m 285.19608,318.33304 a 4.5,4.5 0 0 1 -1.53471,6.08349 4.5,4.5 0 0 1 -6.12413,-1.36349 4.5,4.5 0 0 1 1.1912,-6.15997 4.5,4.5 0 0 1 6.19095,1.01798"
         sodipodi:end="5.6467337"
         sodipodi:start="5.7589295"
         sodipodi:ry="4.5"
         sodipodi:rx="4.5"
         sodipodi:cy="320.5856"
         sodipodi:cx="281.30045"
         sodipodi:type="arc"
         id="path4234"
         style="opacity:1;fill:#ffffff;fill-opacity:1;stroke:none;stroke-width:0.69999999;stroke-miterlimit:4;stroke-dasharray:none;stroke-opacity:1" />
    </g>
    <path
       id="path4247"
       d="m 192.65485,559.42902 c -2.22286,0 -4.01233,1.78948 -4.01233,4.01234 l 0,0.35718 c 0,2.22286 1.78947,4.01233 4.01233,4.01233 l 0.14287,0 c 2.22286,0 4.01233,-1.78947 4.01233,-4.01233 l 0,-0.35718 c 0,-2.22286 -1.78947,-4.01234 -4.01233,-4.01234 l -0.14287,0 z m 0.0225,1.33481 0.0966,0 c 1.51514,0 2.73574,1.21928 2.73574,2.73442 l 0,0.2434 c 0,1.51514 -1.2206,2.73442 -2.73574,2.73442 l -0.0966,0 c -1.51514,0 -2.73574,-1.21928 -2.73574,-2.73442 l 0,-0.2434 c 0,-1.51514 1.2206,-2.73442 2.73574,-2.73442 z"
       style="opacity:1;fill:none;fill-opacity:1;stroke:none;stroke-width:0.5;stroke-miterlimit:4;stroke-dasharray:none;stroke-opacity:1"
       inkscape:connector-curvature="0" />
    <path
       id="path4245"
       d="m 201.75899,550.89769 c -1.7443,0 -3.21757,1.10383 -3.77288,2.65241 a 11.369315,11.369315 0 0 0 -5.25982,-1.29909 11.369315,11.369315 0 0 0 -5.3392,1.34142 c -0.55563,-1.54796 -2.02902,-2.65108 -3.77289,-2.65108 l -0.14287,0 c -2.22286,0 -4.01233,1.78947 -4.01233,4.01233 l 0,0.35586 c 0,1.80708 1.18235,3.32809 2.81908,3.83374 a 11.369315,11.369315 0 0 0 -0.92205,4.47667 11.369315,11.369315 0 0 0 11.37026,11.36894 11.369315,11.369315 0 0 0 11.36893,-11.36894 11.369315,11.369315 0 0 0 -0.95909,-4.53488 c 1.61482,-0.51857 2.77807,-2.02634 2.77807,-3.81786 l 0,-0.35718 c 0,-2.22286 -1.78947,-4.01234 -4.01233,-4.01234 l -0.14288,0 z"
       style="opacity:1;fill:none;fill-opacity:1;stroke:#3c8dbc;stroke-width:3.00000024;stroke-miterlimit:4;stroke-dasharray:none;stroke-opacity:1"
       inkscape:connector-curvature="0"
       inkscape:export-xdpi="102.98552"
       inkscape:export-ydpi="102.98552" />
    <circle
       id="path4249"
       style="opacity:1;fill:#3c8dbc;fill-opacity:1;stroke:#3c8dbc;stroke-width:0.69999999;stroke-miterlimit:4;stroke-dasharray:none;stroke-opacity:1"
       cx="192.73996"
       cy="563.54529"
       r="4.5" />
    <rect
       ry="0"
       y="-354.83456"
       x="-891.80939"
       height="305"
       width="590"
       id="rect4712"
       style="opacity:1;fill:#3c8dbc;fill-opacity:1;stroke:none;stroke-width:0.69999999;stroke-miterlimit:4;stroke-dasharray:none;stroke-opacity:1"
       inkscape:export-filename="/media/jodacame/External/Dropbox/envato/jodacame/scripts/ProRank/inline_preview.png"
       inkscape:export-xdpi="90"
       inkscape:export-ydpi="90" />
    <ellipse
       style="opacity:0.315;fill:#ffffff;fill-opacity:1;stroke:none;stroke-width:18.89299965;stroke-miterlimit:4;stroke-dasharray:none;stroke-opacity:1;filter:url(#filter5008)"
       id="path4734"
       cx="-596.80939"
       cy="-202.33456"
       rx="133.34015"
       ry="24.748735"
       transform="matrix(1.4648507,0,0,2.0827829,277.42727,219.0844)" />
    <g
       id="g4726"
       transform="translate(47.625446,-20.889614)">
      <text
         inkscape:export-ydpi="273.86972"
         inkscape:export-xdpi="273.86972"
         sodipodi:linespacing="125%"
         id="text4714"
         y="-171.88002"
         x="-699.67126"
         style="font-style:normal;font-weight:normal;font-size:26.04388237px;line-height:125%;font-family:sans-serif;letter-spacing:0px;word-spacing:0px;fill:#ffffff;fill-opacity:1;stroke:none;stroke-width:1px;stroke-linecap:butt;stroke-linejoin:miter;stroke-opacity:1"
         xml:space="preserve"
         inkscape:export-filename="/tmp/logo.png"><tspan
           style="font-style:normal;font-variant:normal;font-weight:normal;font-stretch:normal;font-size:26.04351807px;line-height:125%;font-family:'Arial Black';-inkscape-font-specification:'Arial Black, Normal';text-align:start;writing-mode:lr-tb;text-anchor:start;fill:#ffffff"
           y="-171.88002"
           x="-699.67126"
           id="tspan4716"
           sodipodi:role="line">PRORANK</tspan></text>
      <g
         transform="translate(-1000,-501.42857)"
         id="g4718">
        <path
           id="path4720"
           d="m 290.31948,307.93802 c -1.7443,0 -3.21757,1.10383 -3.77288,2.65241 a 11.369315,11.369315 0 0 0 -5.25982,-1.29909 11.369315,11.369315 0 0 0 -5.3392,1.34142 c -0.55563,-1.54796 -2.02902,-2.65108 -3.77289,-2.65108 l -0.14287,0 c -2.22286,0 -4.01233,1.78947 -4.01233,4.01233 l 0,0.35586 c 0,1.80708 1.18235,3.32809 2.81908,3.83374 a 11.369315,11.369315 0 0 0 -0.92205,4.47667 11.369315,11.369315 0 0 0 11.37026,11.36894 11.369315,11.369315 0 0 0 11.36893,-11.36894 11.369315,11.369315 0 0 0 -0.95909,-4.53488 c 1.61482,-0.51857 2.77807,-2.02634 2.77807,-3.81786 l 0,-0.35718 c 0,-2.22286 -1.78947,-4.01234 -4.01233,-4.01234 l -0.14288,0 z"
           style="opacity:1;fill:none;fill-opacity:1;stroke:#ffffff;stroke-width:3.00000024;stroke-miterlimit:4;stroke-dasharray:none;stroke-opacity:1"
           inkscape:connector-curvature="0" />
        <path
           id="path4722"
           d="m 281.21534,316.46935 c -2.22286,0 -4.01233,1.78948 -4.01233,4.01234 l 0,0.35718 c 0,2.22286 1.78947,4.01233 4.01233,4.01233 l 0.14287,0 c 2.22286,0 4.01233,-1.78947 4.01233,-4.01233 l 0,-0.35718 c 0,-2.22286 -1.78947,-4.01234 -4.01233,-4.01234 l -0.14287,0 z m 0.0225,1.33481 0.0966,0 c 1.51514,0 2.73574,1.21928 2.73574,2.73442 l 0,0.2434 c 0,1.51514 -1.2206,2.73442 -2.73574,2.73442 l -0.0966,0 c -1.51514,0 -2.73574,-1.21928 -2.73574,-2.73442 l 0,-0.2434 c 0,-1.51514 1.2206,-2.73442 2.73574,-2.73442 z"
           style="opacity:1;fill:none;fill-opacity:1;stroke:none;stroke-width:0.5;stroke-miterlimit:4;stroke-dasharray:none;stroke-opacity:1"
           inkscape:connector-curvature="0" />
        <path
           sodipodi:open="true"
           d="m 285.19608,318.33304 a 4.5,4.5 0 0 1 -1.53471,6.08349 4.5,4.5 0 0 1 -6.12413,-1.36349 4.5,4.5 0 0 1 1.1912,-6.15997 4.5,4.5 0 0 1 6.19095,1.01798"
           sodipodi:end="5.6467337"
           sodipodi:start="5.7589295"
           sodipodi:ry="4.5"
           sodipodi:rx="4.5"
           sodipodi:cy="320.5856"
           sodipodi:cx="281.30045"
           sodipodi:type="arc"
           id="path4724"
           style="opacity:1;fill:#ffffff;fill-opacity:1;stroke:none;stroke-width:0.69999999;stroke-miterlimit:4;stroke-dasharray:none;stroke-opacity:1" />
      </g>
    </g>
    <g
       id="g5024"
       transform="translate(-2,0)">
      <text
         sodipodi:linespacing="125%"
         id="text5012"
         y="-59.774967"
         x="-880.66278"
         style="font-style:normal;font-weight:normal;font-size:13.76823139px;line-height:125%;font-family:sans-serif;letter-spacing:0px;word-spacing:0px;fill:#000000;fill-opacity:1;stroke:none;stroke-width:1px;stroke-linecap:butt;stroke-linejoin:miter;stroke-opacity:1"
         xml:space="preserve"><tspan
           style="font-style:normal;font-variant:normal;font-weight:normal;font-stretch:condensed;font-family:Impact;-inkscape-font-specification:'Impact Condensed';fill:#ffffff"
           y="-59.774967"
           x="-880.66278"
           id="tspan5014"
           sodipodi:role="line">SCORE STATS        ADSENSE ESTIMATION          TECHNOLOGIES CHECK          OPTIMIZATION TIPS          CLEAN DESIGN</tspan></text>
      <circle
         r="3.7880719"
         cy="-65.217049"
         cx="-800.47113"
         id="path5016"
         style="opacity:1;fill:#ffffff;fill-opacity:1;stroke:none;stroke-width:18.89299965;stroke-miterlimit:4;stroke-dasharray:none;stroke-opacity:1" />
      <circle
         style="opacity:1;fill:#ffffff;fill-opacity:1;stroke:none;stroke-width:18.89299965;stroke-miterlimit:4;stroke-dasharray:none;stroke-opacity:1"
         id="circle5018"
         cx="-664.47113"
         cy="-65.217049"
         r="3.7880719" />
      <circle
         r="3.7880719"
         cy="-65.217049"
         cx="-522.47113"
         id="circle5020"
         style="opacity:1;fill:#ffffff;fill-opacity:1;stroke:none;stroke-width:18.89299965;stroke-miterlimit:4;stroke-dasharray:none;stroke-opacity:1" />
      <circle
         style="opacity:1;fill:#ffffff;fill-opacity:1;stroke:none;stroke-width:18.89299965;stroke-miterlimit:4;stroke-dasharray:none;stroke-opacity:1"
         id="circle5022"
         cx="-394.47113"
         cy="-65.217049"
         r="3.7880719" />
    </g>
    <rect
       inkscape:export-ydpi="90"
       inkscape:export-xdpi="90"
       inkscape:export-filename="/media/jodacame/External/Dropbox/envato/jodacame/scripts/ProRank/thumbnail.png"
       style="opacity:1;fill:#3c8dbc;fill-opacity:1;stroke:none;stroke-width:0.7;stroke-miterlimit:4;stroke-dasharray:none;stroke-opacity:1"
       id="rect5032"
       width="80"
       height="80"
       x="-994.6665"
       y="-355.54886"
       ry="0" />
    <text
       inkscape:export-filename="/tmp/logo.png"
       xml:space="preserve"
       style="font-style:normal;font-weight:normal;font-size:13.3720541px;line-height:125%;font-family:sans-serif;letter-spacing:0px;word-spacing:0px;fill:#000000;fill-opacity:1;stroke:none;stroke-width:1px;stroke-linecap:butt;stroke-linejoin:miter;stroke-opacity:1;opacity:0.35;"
       x="-991.95776"
       y="-279.22733"
       id="text5054"
       sodipodi:linespacing="125%"
       inkscape:export-xdpi="273.86972"
       inkscape:export-ydpi="273.86972"><tspan
         sodipodi:role="line"
         id="tspan5056"
         x="-991.95776"
         y="-279.22733"
         style="font-style:normal;font-variant:normal;font-weight:normal;font-stretch:normal;font-size:13.37186813px;line-height:125%;font-family:'Arial Black';-inkscape-font-specification:'Arial Black, Normal';text-align:start;writing-mode:lr-tb;text-anchor:start;fill:#000000;">PRORANK</tspan></text>
    <text
       inkscape:export-ydpi="273.86972"
       inkscape:export-xdpi="273.86972"
       sodipodi:linespacing="125%"
       id="text5036"
       y="-279.7121"
       x="-992.19"
       style="font-style:normal;font-weight:normal;font-size:13.3720541px;line-height:125%;font-family:sans-serif;letter-spacing:0px;word-spacing:0px;fill:#ffffff;fill-opacity:1;stroke:none;stroke-width:1px;stroke-linecap:butt;stroke-linejoin:miter;stroke-opacity:1"
       xml:space="preserve"
       inkscape:export-filename="/tmp/logo.png"><tspan
         style="font-style:normal;font-variant:normal;font-weight:normal;font-stretch:normal;font-size:13.37186813px;line-height:125%;font-family:'Arial Black';-inkscape-font-specification:'Arial Black, Normal';text-align:start;writing-mode:lr-tb;text-anchor:start;fill:#ffffff"
         y="-279.7121"
         x="-992.19"
         id="tspan5038"
         sodipodi:role="line">PRORANK</tspan></text>
    <g
       transform="matrix(1.4243733,0,0,1.4243733,-1355.2673,-777.32498)"
       id="g5040">
      <path
         id="path5042"
         d="m 290.31948,307.93802 c -1.7443,0 -3.21757,1.10383 -3.77288,2.65241 a 11.369315,11.369315 0 0 0 -5.25982,-1.29909 11.369315,11.369315 0 0 0 -5.3392,1.34142 c -0.55563,-1.54796 -2.02902,-2.65108 -3.77289,-2.65108 l -0.14287,0 c -2.22286,0 -4.01233,1.78947 -4.01233,4.01233 l 0,0.35586 c 0,1.80708 1.18235,3.32809 2.81908,3.83374 a 11.369315,11.369315 0 0 0 -0.92205,4.47667 11.369315,11.369315 0 0 0 11.37026,11.36894 11.369315,11.369315 0 0 0 11.36893,-11.36894 11.369315,11.369315 0 0 0 -0.95909,-4.53488 c 1.61482,-0.51857 2.77807,-2.02634 2.77807,-3.81786 l 0,-0.35718 c 0,-2.22286 -1.78947,-4.01234 -4.01233,-4.01234 l -0.14288,0 z"
         style="opacity:1;fill:none;fill-opacity:1;stroke:#ffffff;stroke-width:3.00000024;stroke-miterlimit:4;stroke-dasharray:none;stroke-opacity:1"
         inkscape:connector-curvature="0" />
      <path
         id="path5044"
         d="m 281.21534,316.46935 c -2.22286,0 -4.01233,1.78948 -4.01233,4.01234 l 0,0.35718 c 0,2.22286 1.78947,4.01233 4.01233,4.01233 l 0.14287,0 c 2.22286,0 4.01233,-1.78947 4.01233,-4.01233 l 0,-0.35718 c 0,-2.22286 -1.78947,-4.01234 -4.01233,-4.01234 l -0.14287,0 z m 0.0225,1.33481 0.0966,0 c 1.51514,0 2.73574,1.21928 2.73574,2.73442 l 0,0.2434 c 0,1.51514 -1.2206,2.73442 -2.73574,2.73442 l -0.0966,0 c -1.51514,0 -2.73574,-1.21928 -2.73574,-2.73442 l 0,-0.2434 c 0,-1.51514 1.2206,-2.73442 2.73574,-2.73442 z"
         style="opacity:1;fill:none;fill-opacity:1;stroke:none;stroke-width:0.5;stroke-miterlimit:4;stroke-dasharray:none;stroke-opacity:1"
         inkscape:connector-curvature="0" />
      <path
         sodipodi:open="true"
         d="m 285.19608,318.33304 a 4.5,4.5 0 0 1 -1.53471,6.08349 4.5,4.5 0 0 1 -6.12413,-1.36349 4.5,4.5 0 0 1 1.1912,-6.15997 4.5,4.5 0 0 1 6.19095,1.01798"
         sodipodi:end="5.6467337"
         sodipodi:start="5.7589295"
         sodipodi:ry="4.5"
         sodipodi:rx="4.5"
         sodipodi:cy="320.5856"
         sodipodi:cx="281.30045"
         sodipodi:type="arc"
         id="path5046"
         style="opacity:1;fill:#ffffff;fill-opacity:1;stroke:none;stroke-width:0.69999999;stroke-miterlimit:4;stroke-dasharray:none;stroke-opacity:1" />
    </g>
  </g>
</svg>
